<svg width="15" height="11" viewBox="0 0 15 11" fill="none" xmlns="http://www.w3.org/2000/svg">
<path d="M12.665 0.664993H1.99833C1.26195 0.664993 0.665001 1.26195 0.665001 1.99833V8.66499C0.665001 9.40137 1.26195 9.99833 1.99833 9.99833H12.665C13.4014 9.99833 13.9983 9.40137 13.9983 8.66499V1.99833C13.9983 1.26195 13.4014 0.664993 12.665 0.664993Z" stroke="#1A1A1A" stroke-width="1.33" stroke-linecap="round" stroke-linejoin="round"/>
<path d="M5.91914 3.6548C5.91914 3.4225 5.91914 3.30635 5.96758 3.24233C6.00977 3.18655 6.07427 3.15203 6.14408 3.14786C6.22423 3.14308 6.32087 3.20751 6.51415 3.33636L9.02945 5.01323C9.18916 5.1197 9.26902 5.17294 9.29684 5.24004C9.32117 5.2987 9.32117 5.36463 9.29684 5.4233C9.26902 5.4904 9.18916 5.54363 9.02945 5.65011L6.51415 7.32697C6.32087 7.45583 6.22423 7.52026 6.14408 7.51547C6.07427 7.51131 6.00977 7.47679 5.96758 7.42101C5.91914 7.35698 5.91914 7.24084 5.91914 7.00853V3.6548Z" stroke="#1A1A1A" stroke-width="1.33" stroke-linecap="round" stroke-linejoin="round"/>
</svg>
