<svg width="18" height="17" viewBox="0 0 18 17" fill="none" xmlns="http://www.w3.org/2000/svg">
<path d="M13.3681 10.6471C13.3681 9.98534 13.1052 9.3507 12.6373 8.88278C12.1694 8.41485 11.5348 8.15198 10.873 8.15198H7.13036C6.46861 8.15198 5.83397 8.41485 5.36605 8.88278C4.89813 9.3507 4.63525 9.98534 4.63525 10.6471" stroke="#1A1A1A" stroke-width="1.33333" stroke-linecap="round" stroke-linejoin="round"/>
<path d="M9.00145 5.65687C10.3795 5.65687 11.4966 4.53977 11.4966 3.16177C11.4966 1.78376 10.3795 0.666664 9.00145 0.666664C7.62344 0.666664 6.50635 1.78376 6.50635 3.16177C6.50635 4.53977 7.62344 5.65687 9.00145 5.65687Z" stroke="#1A1A1A" stroke-width="1.33333" stroke-linecap="round" stroke-linejoin="round"/>
<path d="M17.3381 16.2358V13.975C17.3381 13.4227 16.8904 12.975 16.3381 12.975H1.66504C1.11275 12.975 0.665039 13.4227 0.665039 13.975V16.2358" stroke="#1A1A1A" stroke-width="1.33" stroke-linecap="round"/>
</svg>
