<svg width="15" height="13" viewBox="0 0 15 13" fill="none" xmlns="http://www.w3.org/2000/svg">
<path d="M4.51018 12.2005H9.63708M7.07363 9.63707V12.2005M3.74114 9.63707H10.4061C11.4829 9.63707 12.0212 9.63707 12.4325 9.42752C12.7943 9.2432 13.0884 8.94908 13.2727 8.58732C13.4823 8.17606 13.4823 7.63768 13.4823 6.56093V3.74114C13.4823 2.66438 13.4823 2.12601 13.2727 1.71474C13.0884 1.35299 12.7943 1.05887 12.4325 0.874543C12.0212 0.664993 11.4829 0.664993 10.4061 0.664993H3.74114C2.66439 0.664993 2.12602 0.664993 1.71475 0.874543C1.35299 1.05887 1.05888 1.35299 0.874551 1.71474C0.665001 2.12601 0.665001 2.66438 0.665001 3.74114V6.56093C0.665001 7.63768 0.665001 8.17606 0.874551 8.58732C1.05888 8.94908 1.35299 9.2432 1.71475 9.42752C2.12602 9.63707 2.66439 9.63707 3.74114 9.63707Z" stroke="#1A1A1A" stroke-width="1.33" stroke-linecap="round" stroke-linejoin="round"/>
</svg>
